<svg xmlns="http://www.w3.org/2000/svg" xmlns:xlink="http://www.w3.org/1999/xlink" width="48" zoomAndPan="magnify" viewBox="0 0 36 36.000001" height="48" preserveAspectRatio="xMidYMid meet" version="1.0"><defs><clipPath id="eba016986b"><path d="M 0.488281 8 L 11 8 L 11 26 L 0.488281 26 Z M 0.488281 8 " clip-rule="nonzero"/></clipPath><clipPath id="73c062086e"><path d="M 24 8 L 34.785156 8 L 34.785156 26 L 24 26 Z M 24 8 " clip-rule="nonzero"/></clipPath><clipPath id="f9c936281b"><path d="M 12 5 L 23 5 L 23 28.855469 L 12 28.855469 Z M 12 5 " clip-rule="nonzero"/></clipPath></defs><g clip-path="url(#eba016986b)"><path fill="#5271ff" d="M 9.183594 25.394531 C 8.675781 25.394531 8.339844 25.222656 8 24.886719 L 1.238281 18.125 C 0.5625 17.449219 0.5625 16.433594 1.238281 15.757812 L 8 9 C 8.675781 8.320312 9.691406 8.320312 10.367188 9 C 11.042969 9.675781 11.042969 10.6875 10.367188 11.363281 L 4.789062 16.941406 L 10.367188 22.519531 C 11.042969 23.195312 11.042969 24.210938 10.367188 24.886719 C 10.027344 25.222656 9.691406 25.394531 9.183594 25.394531 Z M 9.183594 25.394531 " fill-opacity="1" fill-rule="nonzero"/></g><g clip-path="url(#73c062086e)"><path fill="#5271ff" d="M 26.085938 25.394531 C 25.578125 25.394531 25.242188 25.222656 24.902344 24.886719 C 24.226562 24.210938 24.226562 23.195312 24.902344 22.519531 L 30.480469 16.941406 L 24.902344 11.363281 C 24.226562 10.6875 24.226562 9.675781 24.902344 9 C 25.578125 8.320312 26.59375 8.320312 27.269531 9 L 34.03125 15.757812 C 34.707031 16.433594 34.707031 17.449219 34.03125 18.125 L 27.269531 24.886719 C 26.929688 25.222656 26.59375 25.394531 26.085938 25.394531 Z M 26.085938 25.394531 " fill-opacity="1" fill-rule="nonzero"/></g><g clip-path="url(#f9c936281b)"><path fill="#5271ff" d="M 14.253906 28.773438 C 14.085938 28.773438 13.917969 28.773438 13.746094 28.605469 C 12.902344 28.265625 12.394531 27.421875 12.734375 26.40625 L 19.496094 6.125 C 19.832031 5.28125 20.675781 4.773438 21.691406 5.109375 C 22.535156 5.449219 23.042969 6.292969 22.707031 7.308594 L 15.945312 27.589844 C 15.605469 28.265625 14.929688 28.773438 14.253906 28.773438 Z M 14.253906 28.773438 " fill-opacity="1" fill-rule="nonzero"/></g></svg>