<svg xmlns="http://www.w3.org/2000/svg" xmlns:xlink="http://www.w3.org/1999/xlink" width="94" zoomAndPan="magnify" viewBox="0 0 70.5 30.000001" height="40" preserveAspectRatio="xMidYMid meet" version="1.0"><defs><g/><clipPath id="a9dbfaea53"><path d="M 4.789062 9 L 11 9 L 11 20 L 4.789062 20 Z M 4.789062 9 " clip-rule="nonzero"/></clipPath><clipPath id="6139f58d3f"><path d="M 18 9 L 24.386719 9 L 24.386719 20 L 18 20 Z M 18 9 " clip-rule="nonzero"/></clipPath><clipPath id="1fa28610a7"><path d="M 11 7.261719 L 18 7.261719 L 18 21.050781 L 11 21.050781 Z M 11 7.261719 " clip-rule="nonzero"/></clipPath></defs><g clip-path="url(#a9dbfaea53)"><path fill="#5271ff" d="M 9.785156 19.117188 C 9.492188 19.117188 9.296875 19.023438 9.105469 18.828125 L 5.214844 14.9375 C 4.828125 14.550781 4.828125 13.96875 5.214844 13.578125 L 9.105469 9.691406 C 9.492188 9.300781 10.078125 9.300781 10.464844 9.691406 C 10.855469 10.078125 10.855469 10.664062 10.464844 11.050781 L 7.257812 14.257812 L 10.464844 17.464844 C 10.855469 17.855469 10.855469 18.4375 10.464844 18.828125 C 10.269531 19.023438 10.078125 19.117188 9.785156 19.117188 Z M 9.785156 19.117188 " fill-opacity="1" fill-rule="nonzero"/></g><g clip-path="url(#6139f58d3f)"><path fill="#5271ff" d="M 19.503906 19.117188 C 19.210938 19.117188 19.019531 19.023438 18.824219 18.828125 C 18.433594 18.4375 18.433594 17.855469 18.824219 17.464844 L 22.03125 14.257812 L 18.824219 11.050781 C 18.433594 10.664062 18.433594 10.078125 18.824219 9.691406 C 19.210938 9.300781 19.796875 9.300781 20.183594 9.691406 L 24.074219 13.578125 C 24.460938 13.96875 24.460938 14.550781 24.074219 14.9375 L 20.183594 18.828125 C 19.988281 19.023438 19.796875 19.117188 19.503906 19.117188 Z M 19.503906 19.117188 " fill-opacity="1" fill-rule="nonzero"/></g><g clip-path="url(#1fa28610a7)"><path fill="#5271ff" d="M 12.699219 21.0625 C 12.601562 21.0625 12.507812 21.0625 12.410156 20.964844 C 11.921875 20.769531 11.632812 20.285156 11.824219 19.703125 L 15.714844 8.039062 C 15.90625 7.550781 16.394531 7.261719 16.976562 7.457031 C 17.464844 7.648438 17.753906 8.136719 17.558594 8.71875 L 13.671875 20.382812 C 13.476562 20.769531 13.089844 21.0625 12.699219 21.0625 Z M 12.699219 21.0625 " fill-opacity="1" fill-rule="nonzero"/></g><g fill="#000000" fill-opacity="1"><g transform="translate(27.155264, 18.731077)"><g><path d="M 3.8125 -8.25 C 4.6875 -8.25 5.445312 -8.078125 6.09375 -7.734375 C 6.75 -7.390625 7.253906 -6.90625 7.609375 -6.28125 C 7.960938 -5.65625 8.140625 -4.9375 8.140625 -4.125 C 8.140625 -3.3125 7.960938 -2.59375 7.609375 -1.96875 C 7.253906 -1.34375 6.75 -0.859375 6.09375 -0.515625 C 5.4375 -0.171875 4.675781 0 3.8125 0 L 0.734375 0 L 0.734375 -8.25 Z M 3.6875 -1.734375 C 4.445312 -1.734375 5.035156 -1.941406 5.453125 -2.359375 C 5.878906 -2.773438 6.09375 -3.363281 6.09375 -4.125 C 6.09375 -4.882812 5.878906 -5.472656 5.453125 -5.890625 C 5.035156 -6.316406 4.445312 -6.53125 3.6875 -6.53125 L 2.734375 -6.53125 L 2.734375 -1.734375 Z M 3.6875 -1.734375 "/></g></g></g><g fill="#000000" fill-opacity="1"><g transform="translate(35.687391, 18.731077)"><g><path d="M 2.734375 -6.640625 L 2.734375 -4.96875 L 5.421875 -4.96875 L 5.421875 -3.421875 L 2.734375 -3.421875 L 2.734375 -1.609375 L 5.78125 -1.609375 L 5.78125 0 L 0.734375 0 L 0.734375 -8.25 L 5.78125 -8.25 L 5.78125 -6.640625 Z M 2.734375 -6.640625 "/></g></g></g><g fill="#000000" fill-opacity="1"><g transform="translate(42.036603, 18.731077)"><g><path d="M 8.46875 -8.25 L 5.546875 0 L 3.03125 0 L 0.109375 -8.25 L 2.25 -8.25 L 4.28125 -2.015625 L 6.34375 -8.25 Z M 8.46875 -8.25 "/></g></g></g><g fill="#000000" fill-opacity="1"><g transform="translate(50.603936, 18.731077)"><g/></g></g><g fill="#000000" fill-opacity="1"><g transform="translate(53.091986, 18.731077)"><g><path d="M 5.859375 -1.453125 L 2.78125 -1.453125 L 2.296875 0 L 0.1875 0 L 3.171875 -8.25 L 5.5 -8.25 L 8.484375 0 L 6.359375 0 Z M 5.34375 -3.015625 L 4.328125 -6.03125 L 3.3125 -3.015625 Z M 5.34375 -3.015625 "/></g></g></g><g fill="#000000" fill-opacity="1"><g transform="translate(61.741474, 18.731077)"><g><path d="M 2.734375 -8.25 L 2.734375 0 L 0.734375 0 L 0.734375 -8.25 Z M 2.734375 -8.25 "/></g></g></g></svg>